<?xml version="1.0" encoding="UTF-8" standalone="no"?>
<svg
   width="1500"
   height="380"
   viewBox="0 0 1500 380"
   role="img"
   aria-labelledby="title desc"
   version="1.1"
   id="svg45"
   xmlns="http://www.w3.org/2000/svg"
   xmlns:svg="http://www.w3.org/2000/svg">
  <title
     id="title">SysCom 2026 Conference Logo</title>
  <desc
     id="desc">A transparent gold vector logo for Smart Systems and Advanced Computing.</desc>
  <defs
     id="defs6">
    <linearGradient
       id="goldGradient"
       x1="0"
       y1="0"
       x2="1"
       y2="1">
      <stop
         offset="0%"
         stop-color="#A96E08"
         id="stop1" />
      <stop
         offset="52%"
         stop-color="#D8A51D"
         id="stop2" />
      <stop
         offset="100%"
         stop-color="#F4C54B"
         id="stop3" />
    </linearGradient>
    <linearGradient
       id="goldGradientReverse"
       x1="1"
       y1="0"
       x2="0"
       y2="1">
      <stop
         offset="0%"
         stop-color="#A96E08"
         id="stop4" />
      <stop
         offset="52%"
         stop-color="#D8A51D"
         id="stop5" />
      <stop
         offset="100%"
         stop-color="#F4C54B"
         id="stop6" />
    </linearGradient>
    <filter
       id="softShadow"
       x="-20%"
       y="-20%"
       width="140%"
       height="140%">
      <feDropShadow
         dx="0"
         dy="3"
         stdDeviation="2.5"
         flood-color="#8A5905"
         flood-opacity="0.18" />
    </filter>
  </defs>
  <!-- Transparent canvas: intentionally no background rectangle -->
  <g
     transform="translate(24 29)"
     id="g43">
    <!-- Outer C / smart-network orbit -->
    <path
       d="M277 59 A141 141 0 1 0 285 245"
       fill="none"
       stroke="url(#goldGradient)"
       stroke-width="16"
       stroke-linecap="round"
       id="path6" />
    <path
       d="M241 42 A158 158 0 0 0 68 71"
       fill="none"
       stroke="#D8A51D"
       stroke-width="4"
       stroke-linecap="round"
       opacity="0.9"
       id="path7" />
    <path
       d="M57 218 A158 158 0 0 0 233 277"
       fill="none"
       stroke="#D8A51D"
       stroke-width="4"
       stroke-linecap="round"
       opacity="0.9"
       id="path8" />
    <!-- Left circuit traces -->
    <g
       fill="none"
       stroke="#D8A51D"
       stroke-width="5"
       stroke-linecap="round"
       stroke-linejoin="round"
       id="g13">
      <path
         d="M55 97 H23 V73 H4"
         id="path9" />
      <path
         d="M38 128 H4"
         id="path10" />
      <path
         d="M45 159 H18 V183 H2"
         id="path11" />
      <path
         d="M67 191 H28 V213 H4"
         id="path12" />
      <path
         d="M93 221 H48 V244 H24"
         id="path13" />
    </g>
    <g
       fill="#D8A51D"
       id="g21">
      <circle
         cx="4"
         cy="73"
         r="8"
         id="circle13" />
      <circle
         cx="4"
         cy="128"
         r="8"
         id="circle14" />
      <circle
         cx="2"
         cy="183"
         r="8"
         id="circle15" />
      <circle
         cx="4"
         cy="213"
         r="8"
         id="circle16" />
      <circle
         cx="24"
         cy="244"
         r="8"
         id="circle17" />
      <circle
         cx="23"
         cy="97"
         r="5"
         id="circle18" />
      <circle
         cx="18"
         cy="159"
         r="5"
         id="circle19" />
      <circle
         cx="28"
         cy="191"
         r="5"
         id="circle20" />
      <circle
         cx="48"
         cy="221"
         r="5"
         id="circle21" />
    </g>
    <!-- Upper connected intelligence nodes -->
    <g
       fill="none"
       stroke="#D8A51D"
       stroke-width="3.5"
       stroke-linecap="round"
       stroke-linejoin="round"
       opacity="0.95"
       id="g23">
      <path
         d="M80 68 L112 23 L154 20 L188 49 L222 35 L256 79 L278 107"
         id="path21" />
      <path
         d="M112 23 L136 63 L154 20 L182 87 L188 49 L222 35"
         id="path22" />
      <path
         d="M154 20 L182 87 L232 106 L256 79"
         id="path23" />
    </g>
    <g
       fill="#D8A51D"
       id="g32">
      <circle
         cx="80"
         cy="68"
         r="8"
         id="circle23" />
      <circle
         cx="112"
         cy="23"
         r="9"
         id="circle24" />
      <circle
         cx="154"
         cy="20"
         r="7"
         id="circle25" />
      <circle
         cx="188"
         cy="49"
         r="10"
         id="circle26" />
      <circle
         cx="222"
         cy="35"
         r="7"
         id="circle27" />
      <circle
         cx="256"
         cy="79"
         r="10"
         id="circle28" />
      <circle
         cx="278"
         cy="107"
         r="8"
         id="circle29" />
      <circle
         cx="136"
         cy="63"
         r="6"
         id="circle30" />
      <circle
         cx="182"
         cy="87"
         r="7"
         id="circle31" />
      <circle
         cx="232"
         cy="106"
         r="8"
         id="circle32" />
    </g>
    <!-- Custom S shape -->
    <path
       d="M223 107              C195 84 159 75 127 82              C95 89 81 106 84 125              C87 148 116 155 150 158              C181 161 196 169 196 188              C196 211 171 229 137 231              C107 233 84 222 66 202"
       fill="none"
       stroke="url(#goldGradientReverse)"
       stroke-width="24"
       stroke-linecap="round"
       stroke-linejoin="round"
       id="path32" />
    <!-- Central microchip -->
    <g
       transform="translate(112 127)"
       id="g40">
      <rect
         x="0"
         y="0"
         width="66"
         height="66"
         rx="12"
         fill="#D8A51D"
         id="rect32" />
      <rect
         x="14"
         y="14"
         width="38"
         height="38"
         rx="6"
         fill="none"
         stroke="#FFFFFF"
         stroke-width="4"
         opacity="0.95"
         id="rect33" />
      <g
         stroke="#FFFFFF"
         stroke-width="4"
         stroke-linecap="round"
         opacity="0.95"
         id="g36">
        <path
           d="M12 11 V-5 M28 11 V-5 M44 11 V-5 M60 11 V-5"
           id="path33" />
        <path
           d="M12 55 V71 M28 55 V71 M44 55 V71 M60 55 V71"
           id="path34" />
        <path
           d="M11 12 H-5 M11 28 H-5 M11 44 H-5 M11 60 H-5"
           id="path35" />
        <path
           d="M55 12 H71 M55 28 H71 M55 44 H71 M55 60 H71"
           id="path36" />
      </g>
      <g
         fill="#FFFFFF"
         opacity="0.95"
         id="g39">
        <circle
           cx="24"
           cy="24"
           r="3"
           id="circle36" />
        <circle
           cx="42"
           cy="24"
           r="3"
           id="circle37" />
        <circle
           cx="24"
           cy="42"
           r="3"
           id="circle38" />
        <circle
           cx="42"
           cy="42"
           r="3"
           id="circle39" />
      </g>
    </g>
    <!-- small orbit nodes -->
    <g
       fill="#D8A51D"
       id="g42">
      <circle
         cx="72"
         cy="274"
         r="7"
         id="circle40" />
      <circle
         cx="221"
         cy="292"
         r="7"
         id="circle41" />
      <circle
         cx="291"
         cy="223"
         r="7"
         id="circle42" />
    </g>
  </g>
  <!-- Wordmark -->
  <g
     transform="translate(370 0)"
     id="g45">
    <path
       d="m 79.083984,69.800781 v 20.367188 q -7.927734,-3.544922 -15.46875,-5.34961 -7.541015,-1.804687 -14.24414,-1.804687 -8.894532,0 -13.148438,2.449219 -4.253906,2.449218 -4.253906,7.605468 0,3.867188 2.835937,6.058594 2.900391,2.126957 10.441407,3.673827 l 10.570312,2.12695 q 16.048828,3.22266 22.816406,9.79688 6.767579,6.57422 6.767579,18.69141 0,15.91992 -9.47461,23.71875 -9.410156,7.73437 -28.810547,7.73437 -9.152343,0 -18.36914,-1.74023 -9.216797,-1.74024 -18.433594,-5.15625 v -20.94727 q 9.216797,4.89844 17.789062,7.41211 8.636719,2.44922 16.628907,2.44922 8.121093,0 12.439453,-2.70703 4.318359,-2.70703 4.318359,-7.73438 0,-4.51172 -2.964844,-6.96094 -2.90039,-2.44921 -11.666015,-4.38281 l -9.603516,-2.12695 q -14.4375,-3.09375 -21.140625,-9.86133 -6.6386716,-6.76758 -6.6386716,-18.240233 0,-14.373047 9.2812496,-22.107422 9.28125,-7.734375 26.683594,-7.734375 7.927734,0 16.306641,1.224609 8.378906,1.160157 17.33789,3.544922 z M 91.679687,90.8125 h 23.074223 l 19.40039,48.98437 16.5,-48.98437 h 23.07422 l -30.35743,79.01953 q -4.57617,12.05274 -10.69922,16.82227 -6.05859,4.83398 -16.04882,4.83398 h -13.3418 V 176.3418 H 110.5 q 5.86523,0 8.50781,-1.86914 2.70703,-1.86914 4.18946,-6.70313 l 0.64453,-1.99805 z M 238.5957,93.068359 v 17.531251 q -7.41211,-3.09375 -14.30859,-4.64063 -6.89649,-1.54687 -13.01953,-1.54687 -6.57422,0 -9.79688,1.67578 -3.1582,1.61133 -3.1582,5.02734 0,2.77149 2.38477,4.25391 2.44921,1.48242 8.70117,2.19141 l 4.06054,0.58008 q 17.72461,2.25585 23.84766,7.4121 6.12305,5.15625 6.12305,16.17774 0,11.53711 -8.50782,17.33789 -8.50781,5.80078 -25.39453,5.80078 -7.15429,0 -14.82422,-1.16016 -7.60546,-1.0957 -15.6621,-3.35156 v -17.53125 q 6.89648,3.35156 14.11523,5.02735 7.2832,1.67578 14.75977,1.67578 6.76757,0 10.18359,-1.86914 3.41601,-1.86914 3.41601,-5.54297 0,-3.09375 -2.38476,-4.57617 -2.32031,-1.54688 -9.3457,-2.38477 l -4.06055,-0.51563 q -15.4043,-1.93359 -21.5918,-7.15429 -6.1875,-5.2207 -6.1875,-15.85547 0,-11.47266 7.86328,-17.015626 7.86328,-5.542968 24.10547,-5.542968 6.38086,0 13.40625,0.966796 7.02539,0.966797 15.27539,3.029297 z m 94.51563,64.646481 q -6.83203,3.54493 -14.24414,5.34961 -7.41211,1.80469 -15.46875,1.80469 -24.04102,0 -38.0918,-13.40625 -14.05078,-13.4707 -14.05078,-36.48047 0,-23.074217 14.05078,-36.480467 14.05078,-13.470703 38.0918,-13.470703 8.05664,0 15.46875,1.804687 7.41211,1.804688 14.24414,5.34961 v 19.916015 q -6.89649,-4.705078 -13.59961,-6.896484 -6.70313,-2.191406 -14.11524,-2.191406 -13.27734,0 -20.88281,8.507812 -7.60547,8.507816 -7.60547,23.460936 0,14.88867 7.60547,23.39649 7.60547,8.50781 20.88281,8.50781 7.41211,0 14.11524,-2.19141 6.70312,-2.1914 13.59961,-6.89648 z m 48.88281,-52.14257 q -7.66992,0 -11.73047,5.54296 -3.99609,5.47852 -3.99609,15.85547 0,10.37696 3.99609,15.91992 4.06055,5.47852 11.73047,5.47852 7.54102,0 11.53711,-5.47852 3.99609,-5.54296 3.99609,-15.91992 0,-10.37695 -3.99609,-15.85547 -3.99609,-5.54296 -11.53711,-5.54296 z m 0,-16.500004 q 18.62695,0 29.06836,10.054687 10.50586,10.054687 10.50586,27.843747 0,17.78907 -10.50586,27.84375 -10.44141,10.05469 -29.06836,10.05469 -18.69141,0 -29.26172,-10.05469 -10.50586,-10.05468 -10.50586,-27.84375 0,-17.78906 10.50586,-27.843747 10.57031,-10.054687 29.26172,-10.054687 z m 118.23438,13.728514 q 4.38281,-6.703124 10.37695,-10.183593 6.05859,-3.544921 13.27734,-3.544921 12.43946,0 18.94922,7.669921 6.50977,7.669923 6.50977,22.300783 V 163 h -23.20313 v -37.64062 q 0.0644,-0.8379 0.0644,-1.74024 0.0645,-0.90234 0.0645,-2.57812 0,-7.66993 -2.25586,-11.08594 -2.25586,-3.48047 -7.2832,-3.48047 -6.57422,0 -10.1836,5.41406 -3.54492,5.41406 -3.67383,15.66211 V 163 h -23.20312 v -37.64062 q 0,-11.98829 -2.0625,-15.4043 -2.0625,-3.48047 -7.34766,-3.48047 -6.63867,0 -10.24804,5.47852 -3.60938,5.41406 -3.60938,15.5332 V 163 H 433.19727 V 90.8125 h 23.20312 v 10.57031 q 4.25391,-6.123044 9.73242,-9.216794 5.54297,-3.09375 12.18164,-3.09375 7.47657,0 13.21289,3.609375 5.73633,3.609375 8.70118,10.119139 z"
       id="text43"
       style="font-weight:800;font-size:132px;font-family:'DejaVu Sans', Arial, sans-serif;letter-spacing:-5;fill:#d8a51d"
       aria-label="SysCom" />
    <g
       transform="translate(852 66)"
       id="g44">
      <rect
         x="0"
         y="0"
         width="238"
         height="102"
         rx="30"
         fill="#D8A51D"
         id="rect43" />
      <path
         d="M 52.392578,61.847168 H 71.319824 V 70 H 40.0625 V 61.847168 L 55.763184,47.990234 q 2.103027,-1.901367 3.111328,-3.716308 1.0083,-1.814942 1.0083,-3.773926 0,-3.024902 -2.04541,-4.868652 -2.016601,-1.84375 -5.387207,-1.84375 -2.592773,0 -5.675293,1.123535 -3.082519,1.094726 -6.597168,3.284179 v -9.449218 q 3.745118,-1.23877 7.403809,-1.872559 3.658691,-0.662598 7.17334,-0.662598 7.720703,0 11.984375,3.399415 4.29248,3.399414 4.29248,9.478027 0,3.514648 -1.814941,6.568359 -1.814942,3.024903 -7.634277,8.124024 z M 104.58545,48.451172 q 0,-8.066406 -1.52686,-11.350586 -1.49804,-3.312988 -5.070309,-3.312988 -3.572265,0 -5.099121,3.312988 -1.526855,3.28418 -1.526855,11.350586 0,8.152832 1.526855,11.494629 1.526856,3.341797 5.099121,3.341797 3.543459,0 5.070309,-3.341797 1.52686,-3.341797 1.52686,-11.494629 z m 11.09131,0.08643 q 0,10.687988 -4.60938,16.507324 -4.60937,5.790527 -13.079099,5.790527 -8.498535,0 -13.10791,-5.790527 -4.609375,-5.819336 -4.609375,-16.507324 0,-10.716797 4.609375,-16.507325 4.609375,-5.819336 13.10791,-5.819336 8.469729,0 13.079099,5.819336 4.60938,5.790528 4.60938,16.507325 z m 20.82031,13.30957 h 18.92725 V 70 h -31.25733 v -8.152832 l 15.70069,-13.856934 q 2.10302,-1.901367 3.11132,-3.716308 1.0083,-1.814942 1.0083,-3.773926 0,-3.024902 -2.04541,-4.868652 -2.0166,-1.84375 -5.3872,-1.84375 -2.59278,0 -5.6753,1.123535 -3.08251,1.094726 -6.59716,3.284179 v -9.449218 q 3.74511,-1.23877 7.40381,-1.872559 3.65869,-0.662598 7.17333,-0.662598 7.72071,0 11.98438,3.399415 4.29248,3.399414 4.29248,9.478027 0,3.514648 -1.81494,6.568359 -1.81494,3.024903 -7.63428,8.124024 z m 46.40234,-13.079102 q -2.90966,0 -4.3789,1.901368 -1.44043,1.872558 -1.44043,5.646484 0,3.773926 1.44043,5.675293 1.46924,1.872559 4.3789,1.872559 2.93848,0 4.37891,-1.872559 1.46924,-1.901367 1.46924,-5.675293 0,-3.773926 -1.46924,-5.646484 -1.44043,-1.901368 -4.37891,-1.901368 z M 196.6123,28.112305 v 7.951172 q -2.73681,-1.296387 -5.15673,-1.901368 -2.41993,-0.633789 -4.72461,-0.633789 -4.95508,0 -7.72071,2.765625 -2.76562,2.736817 -3.22656,8.152832 1.90137,-1.411621 4.11963,-2.103027 2.21826,-0.720215 4.83984,-0.720215 6.59717,0 10.63038,3.860352 4.06201,3.860351 4.06201,10.111816 0,6.914063 -4.52295,11.091309 -4.52295,4.148437 -12.12842,4.148437 -8.3833,0 -12.99268,-5.646484 -4.58056,-5.675293 -4.58056,-16.075195 0,-10.65918 5.3584,-16.737793 5.3872,-6.107422 14.75,-6.107422 2.96728,0 5.76171,0.460937 2.79444,0.460938 5.53125,1.382813 z"
         id="text44"
         style="font-weight:800;font-size:59px;font-family:'DejaVu Sans', Arial, sans-serif;letter-spacing:1;text-anchor:middle;fill:#ffffff"
         aria-label="2026" />
    </g>
    <path
       d="M3 204 H1086"
       fill="none"
       stroke="#D8A51D"
       stroke-width="4"
       stroke-linecap="round"
       opacity="0.75"
       id="path44" />
    <circle
       cx="3"
       cy="204"
       r="6"
       fill="#D8A51D"
       id="circle44" />
    <circle
       cx="1086"
       cy="204"
       r="6"
       fill="#D8A51D"
       id="circle45" />
    <path
       d="m 20.370117,236.99414 v 5.24609 q -2.041992,-0.91308 -3.984375,-1.37793 -1.942383,-0.46484 -3.668945,-0.46484 -2.291016,0 -3.3867189,0.63086 -1.0957031,0.63086 -1.0957031,1.95898 0,0.9961 0.7304688,1.56055 0.7470703,0.54785 2.6894532,0.94629 l 2.722656,0.54785 q 4.133789,0.83008 5.876953,2.52344 1.743164,1.69336 1.743164,4.81445 0,4.10059 -2.440429,6.10938 -2.423829,1.99219 -7.420899,1.99219 -2.3574217,0 -4.7314451,-0.44825 -2.3740235,-0.44824 -4.7480469,-1.32812 v -5.39551 q 2.3740234,1.26172 4.5820312,1.90918 2.2246094,0.63086 4.2832028,0.63086 2.091797,0 3.204102,-0.69727 1.112305,-0.69726 1.112305,-1.99218 0,-1.16211 -0.763672,-1.79297 -0.747071,-0.63086 -3.004883,-1.12891 l -2.4736329,-0.54785 q -3.71875,-0.79688 -5.4453125,-2.54004 -1.7099609,-1.74316 -1.7099609,-4.69824 0,-3.70215 2.390625,-5.69434 2.390625,-1.99219 6.8730473,-1.99219 2.041992,0 4.200195,0.31543 2.158203,0.29883 4.46582,0.91309 z m 8.638281,-0.78027 h 8.134766 l 5.644531,13.26465 5.677734,-13.26465 h 8.118164 V 261 h -6.042968 v -18.12891 l -5.710938,13.36426 H 40.778906 L 35.067968,242.87109 V 261 h -6.05957 z m 50.275,20.2705 H 69.289257 L 67.712109,261 h -6.424805 l 9.180664,-24.78613 h 7.620117 L 87.268749,261 h -6.424804 z m -8.400391,-4.59863 h 6.790039 l -3.386719,-9.86133 z m 30.153903,-4.68164 q 2.00879,0 2.87207,-0.74707 0.87988,-0.74707 0.87988,-2.45703 0,-1.69336 -0.87988,-2.42383 -0.86328,-0.73047 -2.87207,-0.73047 h -2.689452 v 6.3584 z m -2.689452,4.41602 V 261 h -6.391602 v -24.78613 h 9.761724 q 4.89746,0 7.17187,1.64355 2.29102,1.64356 2.29102,5.19629 0,2.45703 -1.19532,4.03418 -1.17871,1.57715 -3.56933,2.32422 1.31152,0.29883 2.34082,1.36133 1.0459,1.0459 2.1084,3.1875 L 114.33476,261 h -6.80664 l -3.02148,-6.15918 q -0.91309,-1.85937 -1.85938,-2.54004 -0.92968,-0.68066 -2.49023,-0.68066 z M 115.0541,236.21387 h 22.84375 v 4.83105 h -8.21777 V 261 h -6.3916 v -19.95508 h -8.23438 z m 58.03339,0.78027 v 5.24609 q -2.04199,-0.91308 -3.98437,-1.37793 -1.94238,-0.46484 -3.66895,-0.46484 -2.29101,0 -3.38672,0.63086 -1.0957,0.63086 -1.0957,1.95898 0,0.9961 0.73047,1.56055 0.74707,0.54785 2.68945,0.94629 l 2.72266,0.54785 q 4.13379,0.83008 5.87695,2.52344 1.74317,1.69336 1.74317,4.81445 0,4.10059 -2.44043,6.10938 -2.42383,1.99219 -7.4209,1.99219 -2.35742,0 -4.73145,-0.44825 -2.37402,-0.44824 -4.74804,-1.32812 v -5.39551 q 2.37402,1.26172 4.58203,1.90918 2.22461,0.63086 4.2832,0.63086 2.0918,0 3.2041,-0.69727 1.11231,-0.69726 1.11231,-1.99218 0,-1.16211 -0.76367,-1.79297 -0.74707,-0.63086 -3.00489,-1.12891 l -2.47363,-0.54785 q -3.71875,-0.79688 -5.44531,-2.54004 -1.70996,-1.74316 -1.70996,-4.69824 0,-3.70215 2.39062,-5.69434 2.39063,-1.99219 6.87305,-1.99219 2.04199,0 4.20019,0.31543 2.15821,0.29883 4.46582,0.91309 z m 5.18517,-0.78027 h 6.98926 l 5.64453,8.83203 5.64453,-8.83203 h 7.00586 l -9.44629,14.34375 V 261 h -6.3916 v -10.44238 z m 46.72226,0.78027 v 5.24609 q -2.04199,-0.91308 -3.98438,-1.37793 -1.94238,-0.46484 -3.66894,-0.46484 -2.29102,0 -3.38672,0.63086 -1.0957,0.63086 -1.0957,1.95898 0,0.9961 0.73047,1.56055 0.74707,0.54785 2.68945,0.94629 l 2.72265,0.54785 q 4.13379,0.83008 5.87696,2.52344 1.74316,1.69336 1.74316,4.81445 0,4.10059 -2.44043,6.10938 -2.42383,1.99219 -7.4209,1.99219 -2.35742,0 -4.73144,-0.44825 -2.37402,-0.44824 -4.74805,-1.32812 v -5.39551 q 2.37403,1.26172 4.58203,1.90918 2.22461,0.63086 4.28321,0.63086 2.09179,0 3.2041,-0.69727 1.1123,-0.69726 1.1123,-1.99218 0,-1.16211 -0.76367,-1.79297 -0.74707,-0.63086 -3.00488,-1.12891 l -2.47364,-0.54785 q -3.71875,-0.79688 -5.44531,-2.54004 -1.70996,-1.74316 -1.70996,-4.69824 0,-3.70215 2.39063,-5.69434 2.39062,-1.99219 6.87304,-1.99219 2.042,0 4.2002,0.31543 2.1582,0.29883 4.46582,0.91309 z m 5.68321,-0.78027 h 22.84375 v 4.83105 h -8.21777 V 261 h -6.3916 v -19.95508 h -8.23438 z m 27.54746,0 h 17.24902 v 4.83105 h -10.85742 v 4.61524 h 10.20996 v 4.83105 h -10.20996 v 5.67774 h 11.22265 V 261 h -17.61425 z m 24.62558,0 h 8.13476 l 5.64453,13.26465 5.67774,-13.26465 h 8.11816 V 261 h -6.04297 v -18.12891 l -5.71094,13.36426 h -4.05078 l -5.71093,-13.36426 V 261 h -6.05957 z m 52.483,0.78027 v 5.24609 q -2.04199,-0.91308 -3.98438,-1.37793 -1.94238,-0.46484 -3.66894,-0.46484 -2.29102,0 -3.38672,0.63086 -1.0957,0.63086 -1.0957,1.95898 0,0.9961 0.73046,1.56055 0.74707,0.54785 2.68946,0.94629 l 2.72265,0.54785 q 4.13379,0.83008 5.87696,2.52344 1.74316,1.69336 1.74316,4.81445 0,4.10059 -2.44043,6.10938 -2.42383,1.99219 -7.4209,1.99219 -2.35742,0 -4.73144,-0.44825 -2.37403,-0.44824 -4.74805,-1.32812 v -5.39551 q 2.37402,1.26172 4.58203,1.90918 2.22461,0.63086 4.2832,0.63086 2.0918,0 3.20411,-0.69727 1.1123,-0.69726 1.1123,-1.99218 0,-1.16211 -0.76367,-1.79297 -0.74707,-0.63086 -3.00488,-1.12891 l -2.47364,-0.54785 q -3.71875,-0.79688 -5.44531,-2.54004 -1.70996,-1.74316 -1.70996,-4.69824 0,-3.70215 2.39062,-5.69434 2.39063,-1.99219 6.87305,-1.99219 2.04199,0 4.2002,0.31543 2.1582,0.29883 4.46582,0.91309 z m 36.91623,19.49023 h -9.99414 L 360.67911,261 h -6.42481 l 9.18067,-24.78613 h 7.62011 L 380.23575,261 h -6.42481 z m -8.40039,-4.59863 h 6.79004 l -3.38672,-9.86133 z m 21.07284,-15.67187 h 7.13867 l 9.01465,17 v -17 h 6.05957 V 261 h -7.13867 l -9.01465,-17 v 17 h -6.05957 z m 36.24668,4.83105 v 15.12403 h 2.29101 q 3.91797,0 5.97656,-1.94239 2.0752,-1.94238 2.0752,-5.64453 0,-3.68555 -2.0586,-5.61133 -2.05859,-1.92578 -5.99316,-1.92578 z m -6.39161,-4.83105 h 6.74024 q 5.64453,0 8.40039,0.81347 2.77246,0.79688 4.74805,2.72266 1.74316,1.67676 2.58984,3.86816 0.84668,2.19141 0.84668,4.96387 0,2.80567 -0.84668,5.01367 -0.84668,2.19141 -2.58984,3.86817 -1.99219,1.92578 -4.78125,2.73925 Q 427.09628,261 421.51816,261 h -6.74024 z m 57.90061,20.2705 h -9.99414 L 461.10724,261 h -6.42481 l 9.18067,-24.78613 h 7.62012 L 480.66388,261 h -6.42481 z m -8.40039,-4.59863 h 6.79004 l -3.38672,-9.86133 z m 27.46444,-10.84082 v 15.12403 h 2.29102 q 3.91797,0 5.97656,-1.94239 2.0752,-1.94238 2.0752,-5.64453 0,-3.68555 -2.0586,-5.61133 -2.05859,-1.92578 -5.99316,-1.92578 z m -6.3916,-4.83105 h 6.74024 q 5.64453,0 8.40039,0.81347 2.77246,0.79688 4.74804,2.72266 1.74317,1.67676 2.58985,3.86816 0.84668,2.19141 0.84668,4.96387 0,2.80567 -0.84668,5.01367 -0.84668,2.19141 -2.58985,3.86817 -1.99218,1.92578 -4.78125,2.73925 Q 497.66934,261 492.09122,261 h -6.74024 z m 26.66757,0 h 6.42481 l 6.57422,18.29492 6.55762,-18.29492 H 538 L 528.81934,261 h -7.62012 z m 43.40198,20.2705 h -9.99414 L 543.84924,261 h -6.4248 l 9.18066,-24.78613 h 7.62012 L 563.40588,261 h -6.4248 z m -8.40039,-4.59863 h 6.79004 l -3.38672,-9.86133 z m 21.07282,-15.67187 h 7.13867 l 9.01465,17 v -17 h 6.05957 V 261 h -7.13867 l -9.01465,-17 v 17 h -6.05957 z m 49.51135,23.4248 q -1.75977,0.91309 -3.66895,1.37793 -1.90918,0.46485 -3.98437,0.46485 -6.19238,0 -9.81152,-3.45313 -3.61915,-3.46973 -3.61915,-9.39648 0,-5.94336 3.61915,-9.39649 3.61914,-3.46973 9.81152,-3.46973 2.07519,0 3.98437,0.46485 1.90918,0.46484 3.66895,1.37793 v 5.12988 q -1.77637,-1.21191 -3.50293,-1.77637 -1.72656,-0.56445 -3.63574,-0.56445 -3.41992,0 -5.37891,2.19141 -1.95898,2.1914 -1.95898,6.04297 0,3.83496 1.95898,6.02636 1.95899,2.19141 5.37891,2.19141 1.90918,0 3.63574,-0.56445 1.72656,-0.56446 3.50293,-1.77637 z m 6.69586,-23.4248 h 17.24902 v 4.83105 h -10.85742 v 4.61524 h 10.20996 v 4.83105 h -10.20996 v 5.67774 h 11.22266 V 261 h -17.61426 z m 31.01721,4.83105 v 15.12403 h 2.29102 q 3.91797,0 5.97656,-1.94239 2.0752,-1.94238 2.0752,-5.64453 0,-3.68555 -2.0586,-5.61133 -2.05859,-1.92578 -5.99316,-1.92578 z m -6.3916,-4.83105 h 6.74024 q 5.64453,0 8.40039,0.81347 2.77246,0.79688 4.74804,2.72266 1.74317,1.67676 2.58985,3.86816 0.84668,2.19141 0.84668,4.96387 0,2.80567 -0.84668,5.01367 -0.84668,2.19141 -2.58985,3.86817 -1.99218,1.92578 -4.78125,2.73925 Q 661.24414,261 655.66602,261 h -6.74024 z m 62.51581,23.4248 q -1.75977,0.91309 -3.66895,1.37793 -1.90918,0.46485 -3.98437,0.46485 -6.19238,0 -9.81152,-3.45313 -3.61915,-3.46973 -3.61915,-9.39648 0,-5.94336 3.61915,-9.39649 3.61914,-3.46973 9.81152,-3.46973 2.07519,0 3.98437,0.46485 1.90918,0.46484 3.66895,1.37793 v 5.12988 q -1.77637,-1.21191 -3.50293,-1.77637 -1.72656,-0.56445 -3.63574,-0.56445 -3.41992,0 -5.37891,2.19141 -1.95898,2.1914 -1.95898,6.04297 0,3.83496 1.95898,6.02636 1.95899,2.19141 5.37891,2.19141 1.90918,0 3.63574,-0.56445 1.72656,-0.56446 3.50293,-1.77637 z m 18.01819,-19.24121 q -2.92188,0 -4.53223,2.1582 -1.61035,2.15821 -1.61035,6.07618 0,3.90136 1.61035,6.05957 1.61035,2.1582 4.53223,2.1582 2.93847,0 4.54883,-2.1582 1.61035,-2.15821 1.61035,-6.05957 0,-3.91797 -1.61035,-6.07618 -1.61036,-2.1582 -4.54883,-2.1582 z m 0,-4.63184 q 5.97656,0 9.36328,3.41993 3.38672,3.41992 3.38672,9.44629 0,6.00976 -3.38672,9.42968 -3.38672,3.41993 -9.36328,3.41993 -5.95996,0 -9.36328,-3.41993 -3.38672,-3.41992 -3.38672,-9.42968 0,-6.02637 3.38672,-9.44629 3.40332,-3.41993 9.36328,-3.41993 z m 18.98102,0.44825 h 8.13476 l 5.64453,13.26465 5.67774,-13.26465 h 8.11816 V 261 h -6.04297 v -18.12891 l -5.71094,13.36426 h -4.05078 l -5.71093,-13.36426 V 261 h -6.05957 z m 35.234,0 h 10.6084 q 4.73145,0 7.25489,2.1084 2.54003,2.09179 2.54003,5.97656 0,3.90137 -2.54003,6.00976 -2.52344,2.0918 -7.25489,2.0918 h -4.21679 V 261 h -6.39161 z m 6.39161,4.63183 v 6.92285 h 3.53613 q 1.85937,0 2.87207,-0.89648 1.01269,-0.91309 1.01269,-2.57324 0,-1.66016 -1.01269,-2.55664 -1.0127,-0.89649 -2.87207,-0.89649 z m 19.92736,-4.63183 h 6.39161 v 14.8584 q 0,3.07128 0.99609,4.39941 1.0127,1.31152 3.28711,1.31152 2.29101,0 3.28711,-1.31152 1.01269,-1.32813 1.01269,-4.39941 v -14.8584 h 6.39161 v 14.8584 q 0,5.26269 -2.63965,7.83593 -2.63965,2.57325 -8.05176,2.57325 -5.39551,0 -8.03516,-2.57325 -2.63965,-2.57324 -2.63965,-7.83593 z m 26.05329,0 h 22.84375 v 4.83105 h -8.21778 V 261 h -6.3916 v -19.95508 h -8.23437 z m 27.54748,0 h 6.39161 V 261 h -6.39161 z m 14.05036,0 h 7.13867 l 9.01465,17 v -17 h 6.05957 V 261 h -7.13867 l -9.01465,-17 v 17 h -6.05957 z m 52.1344,22.94336 q -2.39063,1.16211 -4.96387,1.74316 -2.57324,0.58106 -5.3125,0.58106 -6.19238,0 -9.81152,-3.45313 -3.61914,-3.46973 -3.61914,-9.39648 0,-5.99317 3.68554,-9.42969 3.68555,-3.43653 10.09375,-3.43653 2.47364,0 4.73145,0.46485 2.27441,0.46484 4.2832,1.37793 v 5.12988 q -2.07519,-1.17871 -4.13379,-1.75976 -2.04199,-0.58106 -4.10058,-0.58106 -3.81836,0 -5.89356,2.1416 -2.05859,2.125 -2.05859,6.09278 0,3.93457 1.99218,6.07617 1.99219,2.1416 5.66114,2.1416 0.99609,0 1.84277,-0.11621 0.86328,-0.13281 1.54395,-0.39844 v -4.81445 h -3.90137 v -4.28321 h 9.96094 z"
       id="text45"
       style="font-weight:600;font-size:34px;font-family:'DejaVu Sans', Arial, sans-serif;letter-spacing:1.4;fill:#a96e08"
       aria-label="SMART SYSTEMS AND ADVANCED COMPUTING" />
  </g>
</svg>
